<mxfile host="Electron" agent="Mozilla/5.0 (Windows NT 10.0; Win64; x64) AppleWebKit/537.36 (KHTML, like Gecko) draw.io/26.0.9 Chrome/128.0.6613.186 Electron/32.2.5 Safari/537.36" version="26.0.9">
  <diagram name="Page-1" id="3X_6U9H-U4cYKc0QHPSm">
    <mxGraphModel dx="578" dy="373" grid="1" gridSize="10" guides="1" tooltips="1" connect="1" arrows="1" fold="1" page="1" pageScale="1" pageWidth="570" pageHeight="940" math="0" shadow="0">
      <root>
        <mxCell id="0" />
        <mxCell id="1" parent="0" />
        <mxCell id="GjyVGplFbKFLijOyEsYE-1" value="&lt;b&gt;&lt;font style=&quot;font-size: 16px;&quot;&gt;X = Y+2*Z&lt;/font&gt;&lt;/b&gt;" style="text;html=1;align=center;verticalAlign=middle;whiteSpace=wrap;rounded=0;" vertex="1" parent="1">
          <mxGeometry x="78" y="70" width="80" height="20" as="geometry" />
        </mxCell>
        <mxCell id="GjyVGplFbKFLijOyEsYE-2" value="&lt;b&gt;&lt;font style=&quot;font-size: 16px;&quot;&gt;X = Y+(2*Z)&lt;/font&gt;&lt;/b&gt;" style="text;html=1;align=center;verticalAlign=middle;whiteSpace=wrap;rounded=0;" vertex="1" parent="1">
          <mxGeometry x="350" y="70" width="120" height="20" as="geometry" />
        </mxCell>
        <mxCell id="GjyVGplFbKFLijOyEsYE-43" value="" style="group" vertex="1" connectable="0" parent="1">
          <mxGeometry x="68" y="110" width="191.5" height="160" as="geometry" />
        </mxCell>
        <mxCell id="GjyVGplFbKFLijOyEsYE-3" value="&amp;lt;Affect&amp;gt;" style="text;html=1;align=center;verticalAlign=middle;whiteSpace=wrap;rounded=0;" vertex="1" parent="GjyVGplFbKFLijOyEsYE-43">
          <mxGeometry x="20" width="60" height="20" as="geometry" />
        </mxCell>
        <mxCell id="GjyVGplFbKFLijOyEsYE-11" value="Id" style="text;html=1;align=center;verticalAlign=middle;whiteSpace=wrap;rounded=0;" vertex="1" parent="GjyVGplFbKFLijOyEsYE-43">
          <mxGeometry y="40" width="20" height="10" as="geometry" />
        </mxCell>
        <mxCell id="GjyVGplFbKFLijOyEsYE-12" value="=" style="text;html=1;align=center;verticalAlign=middle;whiteSpace=wrap;rounded=0;" vertex="1" parent="GjyVGplFbKFLijOyEsYE-43">
          <mxGeometry x="40" y="40" width="20" height="10" as="geometry" />
        </mxCell>
        <mxCell id="GjyVGplFbKFLijOyEsYE-13" value="&amp;lt;Exp&amp;gt;" style="text;html=1;align=center;verticalAlign=middle;whiteSpace=wrap;rounded=0;" vertex="1" parent="GjyVGplFbKFLijOyEsYE-43">
          <mxGeometry x="80" y="39" width="29.5" height="10" as="geometry" />
        </mxCell>
        <mxCell id="GjyVGplFbKFLijOyEsYE-15" value="" style="endArrow=none;html=1;rounded=0;exitX=0.75;exitY=0;exitDx=0;exitDy=0;entryX=0.25;entryY=1;entryDx=0;entryDy=0;" edge="1" parent="GjyVGplFbKFLijOyEsYE-43" source="GjyVGplFbKFLijOyEsYE-11" target="GjyVGplFbKFLijOyEsYE-3">
          <mxGeometry width="50" height="50" relative="1" as="geometry">
            <mxPoint x="52" y="70" as="sourcePoint" />
            <mxPoint x="102" y="20" as="targetPoint" />
          </mxGeometry>
        </mxCell>
        <mxCell id="GjyVGplFbKFLijOyEsYE-16" value="" style="endArrow=none;html=1;rounded=0;exitX=0.5;exitY=0;exitDx=0;exitDy=0;entryX=0.5;entryY=1;entryDx=0;entryDy=0;" edge="1" parent="GjyVGplFbKFLijOyEsYE-43" source="GjyVGplFbKFLijOyEsYE-12" target="GjyVGplFbKFLijOyEsYE-3">
          <mxGeometry width="50" height="50" relative="1" as="geometry">
            <mxPoint x="52" y="70" as="sourcePoint" />
            <mxPoint x="102" y="20" as="targetPoint" />
          </mxGeometry>
        </mxCell>
        <mxCell id="GjyVGplFbKFLijOyEsYE-17" value="" style="endArrow=none;html=1;rounded=0;exitX=0;exitY=0;exitDx=0;exitDy=0;entryX=0.75;entryY=1;entryDx=0;entryDy=0;" edge="1" parent="GjyVGplFbKFLijOyEsYE-43" source="GjyVGplFbKFLijOyEsYE-13" target="GjyVGplFbKFLijOyEsYE-3">
          <mxGeometry width="50" height="50" relative="1" as="geometry">
            <mxPoint x="52" y="70" as="sourcePoint" />
            <mxPoint x="102" y="20" as="targetPoint" />
          </mxGeometry>
        </mxCell>
        <mxCell id="GjyVGplFbKFLijOyEsYE-18" value="x" style="text;html=1;align=center;verticalAlign=middle;whiteSpace=wrap;rounded=0;" vertex="1" parent="GjyVGplFbKFLijOyEsYE-43">
          <mxGeometry y="60" width="20" height="10" as="geometry" />
        </mxCell>
        <mxCell id="GjyVGplFbKFLijOyEsYE-19" value="&amp;lt;Exp&amp;gt;" style="text;html=1;align=center;verticalAlign=middle;whiteSpace=wrap;rounded=0;" vertex="1" parent="GjyVGplFbKFLijOyEsYE-43">
          <mxGeometry x="48" y="70" width="29.5" height="10" as="geometry" />
        </mxCell>
        <mxCell id="GjyVGplFbKFLijOyEsYE-20" value="+" style="text;html=1;align=center;verticalAlign=middle;whiteSpace=wrap;rounded=0;" vertex="1" parent="GjyVGplFbKFLijOyEsYE-43">
          <mxGeometry x="86.5" y="70" width="20" height="10" as="geometry" />
        </mxCell>
        <mxCell id="GjyVGplFbKFLijOyEsYE-21" value="&amp;lt;Exp&amp;gt;" style="text;html=1;align=center;verticalAlign=middle;whiteSpace=wrap;rounded=0;" vertex="1" parent="GjyVGplFbKFLijOyEsYE-43">
          <mxGeometry x="124" y="70" width="29.5" height="10" as="geometry" />
        </mxCell>
        <mxCell id="GjyVGplFbKFLijOyEsYE-22" value="" style="endArrow=none;html=1;rounded=0;exitX=0.591;exitY=0.068;exitDx=0;exitDy=0;exitPerimeter=0;entryX=0;entryY=1;entryDx=0;entryDy=0;" edge="1" parent="GjyVGplFbKFLijOyEsYE-43" source="GjyVGplFbKFLijOyEsYE-19" target="GjyVGplFbKFLijOyEsYE-13">
          <mxGeometry width="50" height="50" relative="1" as="geometry">
            <mxPoint x="102" y="80" as="sourcePoint" />
            <mxPoint x="152" y="30" as="targetPoint" />
          </mxGeometry>
        </mxCell>
        <mxCell id="GjyVGplFbKFLijOyEsYE-23" value="" style="endArrow=none;html=1;rounded=0;entryX=1;entryY=1;entryDx=0;entryDy=0;exitX=0.25;exitY=0;exitDx=0;exitDy=0;" edge="1" parent="GjyVGplFbKFLijOyEsYE-43" source="GjyVGplFbKFLijOyEsYE-21" target="GjyVGplFbKFLijOyEsYE-13">
          <mxGeometry width="50" height="50" relative="1" as="geometry">
            <mxPoint x="102" y="90" as="sourcePoint" />
            <mxPoint x="152" y="40" as="targetPoint" />
          </mxGeometry>
        </mxCell>
        <mxCell id="GjyVGplFbKFLijOyEsYE-24" value="" style="endArrow=none;html=1;rounded=0;entryX=0.551;entryY=1.013;entryDx=0;entryDy=0;exitX=0.5;exitY=0;exitDx=0;exitDy=0;entryPerimeter=0;" edge="1" parent="GjyVGplFbKFLijOyEsYE-43" source="GjyVGplFbKFLijOyEsYE-20" target="GjyVGplFbKFLijOyEsYE-13">
          <mxGeometry width="50" height="50" relative="1" as="geometry">
            <mxPoint x="102" y="70" as="sourcePoint" />
            <mxPoint x="152" y="20" as="targetPoint" />
          </mxGeometry>
        </mxCell>
        <mxCell id="GjyVGplFbKFLijOyEsYE-26" value="" style="endArrow=none;html=1;rounded=0;entryX=0.475;entryY=0.97;entryDx=0;entryDy=0;exitX=0.5;exitY=0;exitDx=0;exitDy=0;entryPerimeter=0;" edge="1" parent="GjyVGplFbKFLijOyEsYE-43" source="GjyVGplFbKFLijOyEsYE-27" target="GjyVGplFbKFLijOyEsYE-19">
          <mxGeometry width="50" height="50" relative="1" as="geometry">
            <mxPoint x="63" y="100" as="sourcePoint" />
            <mxPoint x="132" y="80" as="targetPoint" />
          </mxGeometry>
        </mxCell>
        <mxCell id="GjyVGplFbKFLijOyEsYE-27" value="Id" style="text;html=1;align=center;verticalAlign=middle;whiteSpace=wrap;rounded=0;" vertex="1" parent="GjyVGplFbKFLijOyEsYE-43">
          <mxGeometry x="52" y="99" width="20" height="10" as="geometry" />
        </mxCell>
        <mxCell id="GjyVGplFbKFLijOyEsYE-28" value="y" style="text;html=1;align=center;verticalAlign=middle;whiteSpace=wrap;rounded=0;" vertex="1" parent="GjyVGplFbKFLijOyEsYE-43">
          <mxGeometry x="52" y="114" width="20" height="10" as="geometry" />
        </mxCell>
        <mxCell id="GjyVGplFbKFLijOyEsYE-29" value="&amp;lt;Exp&amp;gt;" style="text;html=1;align=center;verticalAlign=middle;whiteSpace=wrap;rounded=0;" vertex="1" parent="GjyVGplFbKFLijOyEsYE-43">
          <mxGeometry x="94.5" y="99" width="29.5" height="10" as="geometry" />
        </mxCell>
        <mxCell id="GjyVGplFbKFLijOyEsYE-30" value="*" style="text;html=1;align=center;verticalAlign=middle;whiteSpace=wrap;rounded=0;" vertex="1" parent="GjyVGplFbKFLijOyEsYE-43">
          <mxGeometry x="128.75" y="97" width="20" height="18" as="geometry" />
        </mxCell>
        <mxCell id="GjyVGplFbKFLijOyEsYE-31" value="&amp;lt;Exp&amp;gt;" style="text;html=1;align=center;verticalAlign=middle;whiteSpace=wrap;rounded=0;" vertex="1" parent="GjyVGplFbKFLijOyEsYE-43">
          <mxGeometry x="162" y="99" width="29.5" height="10" as="geometry" />
        </mxCell>
        <mxCell id="GjyVGplFbKFLijOyEsYE-32" value="" style="endArrow=none;html=1;rounded=0;exitX=0.5;exitY=0;exitDx=0;exitDy=0;entryX=0.25;entryY=1;entryDx=0;entryDy=0;" edge="1" parent="GjyVGplFbKFLijOyEsYE-43" source="GjyVGplFbKFLijOyEsYE-29" target="GjyVGplFbKFLijOyEsYE-21">
          <mxGeometry width="50" height="50" relative="1" as="geometry">
            <mxPoint x="112" y="130" as="sourcePoint" />
            <mxPoint x="142" y="90" as="targetPoint" />
          </mxGeometry>
        </mxCell>
        <mxCell id="GjyVGplFbKFLijOyEsYE-33" value="Cst" style="text;html=1;align=center;verticalAlign=middle;whiteSpace=wrap;rounded=0;" vertex="1" parent="GjyVGplFbKFLijOyEsYE-43">
          <mxGeometry x="99.25" y="129" width="20" height="10" as="geometry" />
        </mxCell>
        <mxCell id="GjyVGplFbKFLijOyEsYE-34" value="2" style="text;html=1;align=center;verticalAlign=middle;whiteSpace=wrap;rounded=0;" vertex="1" parent="GjyVGplFbKFLijOyEsYE-43">
          <mxGeometry x="99.25" y="150" width="20" height="10" as="geometry" />
        </mxCell>
        <mxCell id="GjyVGplFbKFLijOyEsYE-35" value="" style="endArrow=none;html=1;rounded=0;entryX=0.5;entryY=1;entryDx=0;entryDy=0;exitX=0.5;exitY=0;exitDx=0;exitDy=0;" edge="1" parent="GjyVGplFbKFLijOyEsYE-43" source="GjyVGplFbKFLijOyEsYE-33" target="GjyVGplFbKFLijOyEsYE-29">
          <mxGeometry width="50" height="50" relative="1" as="geometry">
            <mxPoint x="112" y="129" as="sourcePoint" />
            <mxPoint x="162" y="79" as="targetPoint" />
          </mxGeometry>
        </mxCell>
        <mxCell id="GjyVGplFbKFLijOyEsYE-36" value="" style="endArrow=none;html=1;rounded=0;exitX=0.5;exitY=0;exitDx=0;exitDy=0;entryX=0.5;entryY=1;entryDx=0;entryDy=0;" edge="1" parent="GjyVGplFbKFLijOyEsYE-43" source="GjyVGplFbKFLijOyEsYE-30" target="GjyVGplFbKFLijOyEsYE-21">
          <mxGeometry width="50" height="50" relative="1" as="geometry">
            <mxPoint x="142.5" y="99" as="sourcePoint" />
            <mxPoint x="137.75" y="80" as="targetPoint" />
          </mxGeometry>
        </mxCell>
        <mxCell id="GjyVGplFbKFLijOyEsYE-39" value="" style="endArrow=none;html=1;rounded=0;exitX=0.208;exitY=-0.04;exitDx=0;exitDy=0;entryX=1;entryY=1;entryDx=0;entryDy=0;exitPerimeter=0;" edge="1" parent="GjyVGplFbKFLijOyEsYE-43" source="GjyVGplFbKFLijOyEsYE-31" target="GjyVGplFbKFLijOyEsYE-21">
          <mxGeometry width="50" height="50" relative="1" as="geometry">
            <mxPoint x="102" y="110" as="sourcePoint" />
            <mxPoint x="152" y="60" as="targetPoint" />
          </mxGeometry>
        </mxCell>
        <mxCell id="GjyVGplFbKFLijOyEsYE-40" value="Id" style="text;html=1;align=center;verticalAlign=middle;whiteSpace=wrap;rounded=0;" vertex="1" parent="GjyVGplFbKFLijOyEsYE-43">
          <mxGeometry x="166.75" y="129" width="20" height="10" as="geometry" />
        </mxCell>
        <mxCell id="GjyVGplFbKFLijOyEsYE-41" value="z" style="text;html=1;align=center;verticalAlign=middle;whiteSpace=wrap;rounded=0;" vertex="1" parent="GjyVGplFbKFLijOyEsYE-43">
          <mxGeometry x="166.75" y="150" width="20" height="10" as="geometry" />
        </mxCell>
        <mxCell id="GjyVGplFbKFLijOyEsYE-42" value="" style="endArrow=none;html=1;rounded=0;exitX=0.5;exitY=0;exitDx=0;exitDy=0;" edge="1" parent="GjyVGplFbKFLijOyEsYE-43" source="GjyVGplFbKFLijOyEsYE-40">
          <mxGeometry width="50" height="50" relative="1" as="geometry">
            <mxPoint x="132" y="110" as="sourcePoint" />
            <mxPoint x="177" y="110" as="targetPoint" />
          </mxGeometry>
        </mxCell>
        <mxCell id="GjyVGplFbKFLijOyEsYE-44" value="" style="group" vertex="1" connectable="0" parent="1">
          <mxGeometry x="352.25" y="110" width="191.5" height="160" as="geometry" />
        </mxCell>
        <mxCell id="GjyVGplFbKFLijOyEsYE-45" value="&amp;lt;Affect&amp;gt;" style="text;html=1;align=center;verticalAlign=middle;whiteSpace=wrap;rounded=0;" vertex="1" parent="GjyVGplFbKFLijOyEsYE-44">
          <mxGeometry x="20" width="60" height="20" as="geometry" />
        </mxCell>
        <mxCell id="GjyVGplFbKFLijOyEsYE-46" value="Id" style="text;html=1;align=center;verticalAlign=middle;whiteSpace=wrap;rounded=0;" vertex="1" parent="GjyVGplFbKFLijOyEsYE-44">
          <mxGeometry y="40" width="20" height="10" as="geometry" />
        </mxCell>
        <mxCell id="GjyVGplFbKFLijOyEsYE-47" value="=" style="text;html=1;align=center;verticalAlign=middle;whiteSpace=wrap;rounded=0;" vertex="1" parent="GjyVGplFbKFLijOyEsYE-44">
          <mxGeometry x="40" y="40" width="20" height="10" as="geometry" />
        </mxCell>
        <mxCell id="GjyVGplFbKFLijOyEsYE-49" value="" style="endArrow=none;html=1;rounded=0;exitX=0.75;exitY=0;exitDx=0;exitDy=0;entryX=0.25;entryY=1;entryDx=0;entryDy=0;" edge="1" parent="GjyVGplFbKFLijOyEsYE-44" source="GjyVGplFbKFLijOyEsYE-46" target="GjyVGplFbKFLijOyEsYE-45">
          <mxGeometry width="50" height="50" relative="1" as="geometry">
            <mxPoint x="52" y="70" as="sourcePoint" />
            <mxPoint x="102" y="20" as="targetPoint" />
          </mxGeometry>
        </mxCell>
        <mxCell id="GjyVGplFbKFLijOyEsYE-50" value="" style="endArrow=none;html=1;rounded=0;exitX=0.5;exitY=0;exitDx=0;exitDy=0;entryX=0.5;entryY=1;entryDx=0;entryDy=0;" edge="1" parent="GjyVGplFbKFLijOyEsYE-44" source="GjyVGplFbKFLijOyEsYE-47" target="GjyVGplFbKFLijOyEsYE-45">
          <mxGeometry width="50" height="50" relative="1" as="geometry">
            <mxPoint x="52" y="70" as="sourcePoint" />
            <mxPoint x="102" y="20" as="targetPoint" />
          </mxGeometry>
        </mxCell>
        <mxCell id="GjyVGplFbKFLijOyEsYE-51" value="" style="endArrow=none;html=1;rounded=0;exitX=0.5;exitY=0;exitDx=0;exitDy=0;entryX=0.75;entryY=1;entryDx=0;entryDy=0;" edge="1" parent="GjyVGplFbKFLijOyEsYE-44" source="GjyVGplFbKFLijOyEsYE-107" target="GjyVGplFbKFLijOyEsYE-45">
          <mxGeometry width="50" height="50" relative="1" as="geometry">
            <mxPoint x="80" y="40" as="sourcePoint" />
            <mxPoint x="102" y="20" as="targetPoint" />
          </mxGeometry>
        </mxCell>
        <mxCell id="GjyVGplFbKFLijOyEsYE-52" value="x" style="text;html=1;align=center;verticalAlign=middle;whiteSpace=wrap;rounded=0;" vertex="1" parent="GjyVGplFbKFLijOyEsYE-44">
          <mxGeometry y="60" width="20" height="10" as="geometry" />
        </mxCell>
        <mxCell id="GjyVGplFbKFLijOyEsYE-53" value="&amp;lt;Exp&amp;gt;" style="text;html=1;align=center;verticalAlign=middle;whiteSpace=wrap;rounded=0;" vertex="1" parent="GjyVGplFbKFLijOyEsYE-44">
          <mxGeometry x="30" y="66" width="29.5" height="10" as="geometry" />
        </mxCell>
        <mxCell id="GjyVGplFbKFLijOyEsYE-55" value="&amp;lt;Exp&amp;gt;" style="text;html=1;align=center;verticalAlign=middle;whiteSpace=wrap;rounded=0;" vertex="1" parent="GjyVGplFbKFLijOyEsYE-44">
          <mxGeometry x="109" y="101" width="29.5" height="10" as="geometry" />
        </mxCell>
        <mxCell id="GjyVGplFbKFLijOyEsYE-59" value="" style="endArrow=none;html=1;rounded=0;entryX=0.475;entryY=0.97;entryDx=0;entryDy=0;exitX=0.5;exitY=0;exitDx=0;exitDy=0;entryPerimeter=0;" edge="1" parent="GjyVGplFbKFLijOyEsYE-44" source="GjyVGplFbKFLijOyEsYE-60" target="GjyVGplFbKFLijOyEsYE-53">
          <mxGeometry width="50" height="50" relative="1" as="geometry">
            <mxPoint x="45" y="96" as="sourcePoint" />
            <mxPoint x="114" y="76" as="targetPoint" />
          </mxGeometry>
        </mxCell>
        <mxCell id="GjyVGplFbKFLijOyEsYE-60" value="Id" style="text;html=1;align=center;verticalAlign=middle;whiteSpace=wrap;rounded=0;" vertex="1" parent="GjyVGplFbKFLijOyEsYE-44">
          <mxGeometry x="34" y="95" width="20" height="10" as="geometry" />
        </mxCell>
        <mxCell id="GjyVGplFbKFLijOyEsYE-61" value="y" style="text;html=1;align=center;verticalAlign=middle;whiteSpace=wrap;rounded=0;" vertex="1" parent="GjyVGplFbKFLijOyEsYE-44">
          <mxGeometry x="34" y="110" width="20" height="10" as="geometry" />
        </mxCell>
        <mxCell id="GjyVGplFbKFLijOyEsYE-62" value="&amp;lt;Exp&amp;gt;" style="text;html=1;align=center;verticalAlign=middle;whiteSpace=wrap;rounded=0;" vertex="1" parent="GjyVGplFbKFLijOyEsYE-44">
          <mxGeometry x="79.5" y="125" width="29.5" height="10" as="geometry" />
        </mxCell>
        <mxCell id="GjyVGplFbKFLijOyEsYE-63" value="*" style="text;html=1;align=center;verticalAlign=middle;whiteSpace=wrap;rounded=0;" vertex="1" parent="GjyVGplFbKFLijOyEsYE-44">
          <mxGeometry x="113.75" y="125" width="20" height="18" as="geometry" />
        </mxCell>
        <mxCell id="GjyVGplFbKFLijOyEsYE-64" value="&amp;lt;Exp&amp;gt;" style="text;html=1;align=center;verticalAlign=middle;whiteSpace=wrap;rounded=0;" vertex="1" parent="GjyVGplFbKFLijOyEsYE-44">
          <mxGeometry x="147" y="126" width="29.5" height="10" as="geometry" />
        </mxCell>
        <mxCell id="GjyVGplFbKFLijOyEsYE-65" value="" style="endArrow=none;html=1;rounded=0;exitX=0.5;exitY=0;exitDx=0;exitDy=0;entryX=0.25;entryY=1;entryDx=0;entryDy=0;" edge="1" parent="GjyVGplFbKFLijOyEsYE-44" target="GjyVGplFbKFLijOyEsYE-55">
          <mxGeometry width="50" height="50" relative="1" as="geometry">
            <mxPoint x="94.24999999999989" y="125.99999999999994" as="sourcePoint" />
            <mxPoint x="127" y="117" as="targetPoint" />
          </mxGeometry>
        </mxCell>
        <mxCell id="GjyVGplFbKFLijOyEsYE-66" value="Cst" style="text;html=1;align=center;verticalAlign=middle;whiteSpace=wrap;rounded=0;" vertex="1" parent="GjyVGplFbKFLijOyEsYE-44">
          <mxGeometry x="84.25" y="156" width="20" height="10" as="geometry" />
        </mxCell>
        <mxCell id="GjyVGplFbKFLijOyEsYE-67" value="2" style="text;html=1;align=center;verticalAlign=middle;whiteSpace=wrap;rounded=0;" vertex="1" parent="GjyVGplFbKFLijOyEsYE-44">
          <mxGeometry x="84.25" y="177" width="20" height="10" as="geometry" />
        </mxCell>
        <mxCell id="GjyVGplFbKFLijOyEsYE-68" value="" style="endArrow=none;html=1;rounded=0;entryX=0.5;entryY=1;entryDx=0;entryDy=0;exitX=0.5;exitY=0;exitDx=0;exitDy=0;" edge="1" parent="GjyVGplFbKFLijOyEsYE-44" source="GjyVGplFbKFLijOyEsYE-66">
          <mxGeometry width="50" height="50" relative="1" as="geometry">
            <mxPoint x="97" y="156" as="sourcePoint" />
            <mxPoint x="94.24999999999989" y="135.99999999999994" as="targetPoint" />
          </mxGeometry>
        </mxCell>
        <mxCell id="GjyVGplFbKFLijOyEsYE-69" value="" style="endArrow=none;html=1;rounded=0;exitX=0.5;exitY=0;exitDx=0;exitDy=0;entryX=0.5;entryY=1;entryDx=0;entryDy=0;" edge="1" parent="GjyVGplFbKFLijOyEsYE-44" target="GjyVGplFbKFLijOyEsYE-55">
          <mxGeometry width="50" height="50" relative="1" as="geometry">
            <mxPoint x="123.75" y="124" as="sourcePoint" />
            <mxPoint x="122.75" y="38" as="targetPoint" />
          </mxGeometry>
        </mxCell>
        <mxCell id="GjyVGplFbKFLijOyEsYE-70" value="" style="endArrow=none;html=1;rounded=0;exitX=0.208;exitY=-0.04;exitDx=0;exitDy=0;entryX=1;entryY=1;entryDx=0;entryDy=0;exitPerimeter=0;" edge="1" parent="GjyVGplFbKFLijOyEsYE-44" source="GjyVGplFbKFLijOyEsYE-64" target="GjyVGplFbKFLijOyEsYE-55">
          <mxGeometry width="50" height="50" relative="1" as="geometry">
            <mxPoint x="87" y="137" as="sourcePoint" />
            <mxPoint x="137" y="87" as="targetPoint" />
          </mxGeometry>
        </mxCell>
        <mxCell id="GjyVGplFbKFLijOyEsYE-71" value="Id" style="text;html=1;align=center;verticalAlign=middle;whiteSpace=wrap;rounded=0;" vertex="1" parent="GjyVGplFbKFLijOyEsYE-44">
          <mxGeometry x="151.75" y="156" width="20" height="10" as="geometry" />
        </mxCell>
        <mxCell id="GjyVGplFbKFLijOyEsYE-72" value="z" style="text;html=1;align=center;verticalAlign=middle;whiteSpace=wrap;rounded=0;" vertex="1" parent="GjyVGplFbKFLijOyEsYE-44">
          <mxGeometry x="151.75" y="177" width="20" height="10" as="geometry" />
        </mxCell>
        <mxCell id="GjyVGplFbKFLijOyEsYE-73" value="" style="endArrow=none;html=1;rounded=0;exitX=0.5;exitY=0;exitDx=0;exitDy=0;" edge="1" parent="GjyVGplFbKFLijOyEsYE-44" source="GjyVGplFbKFLijOyEsYE-71">
          <mxGeometry width="50" height="50" relative="1" as="geometry">
            <mxPoint x="117" y="136" as="sourcePoint" />
            <mxPoint x="162" y="136" as="targetPoint" />
          </mxGeometry>
        </mxCell>
        <mxCell id="GjyVGplFbKFLijOyEsYE-107" value="&amp;lt;Exp&amp;gt;" style="text;html=1;align=center;verticalAlign=middle;whiteSpace=wrap;rounded=0;" vertex="1" parent="GjyVGplFbKFLijOyEsYE-44">
          <mxGeometry x="66" y="40" width="29.5" height="10" as="geometry" />
        </mxCell>
        <mxCell id="GjyVGplFbKFLijOyEsYE-108" value="+" style="text;html=1;align=center;verticalAlign=middle;whiteSpace=wrap;rounded=0;" vertex="1" parent="GjyVGplFbKFLijOyEsYE-44">
          <mxGeometry x="70.75" y="66" width="20" height="10" as="geometry" />
        </mxCell>
        <mxCell id="GjyVGplFbKFLijOyEsYE-109" value="" style="endArrow=none;html=1;rounded=0;exitX=0.5;exitY=0;exitDx=0;exitDy=0;entryX=0.5;entryY=1;entryDx=0;entryDy=0;" edge="1" parent="GjyVGplFbKFLijOyEsYE-44" source="GjyVGplFbKFLijOyEsYE-108" target="GjyVGplFbKFLijOyEsYE-107">
          <mxGeometry width="50" height="50" relative="1" as="geometry">
            <mxPoint x="32.75" y="87" as="sourcePoint" />
            <mxPoint x="82.75" y="37" as="targetPoint" />
          </mxGeometry>
        </mxCell>
        <mxCell id="GjyVGplFbKFLijOyEsYE-110" value="" style="endArrow=none;html=1;rounded=0;exitX=0.5;exitY=0;exitDx=0;exitDy=0;entryX=0;entryY=1;entryDx=0;entryDy=0;" edge="1" parent="GjyVGplFbKFLijOyEsYE-44" source="GjyVGplFbKFLijOyEsYE-53" target="GjyVGplFbKFLijOyEsYE-107">
          <mxGeometry width="50" height="50" relative="1" as="geometry">
            <mxPoint x="72.75" y="107" as="sourcePoint" />
            <mxPoint x="122.75" y="57" as="targetPoint" />
          </mxGeometry>
        </mxCell>
        <mxCell id="GjyVGplFbKFLijOyEsYE-111" value="" style="endArrow=none;html=1;rounded=0;entryX=1;entryY=1;entryDx=0;entryDy=0;exitX=0.5;exitY=0;exitDx=0;exitDy=0;" edge="1" parent="GjyVGplFbKFLijOyEsYE-44" source="GjyVGplFbKFLijOyEsYE-112">
          <mxGeometry width="50" height="50" relative="1" as="geometry">
            <mxPoint x="122.75" y="70" as="sourcePoint" />
            <mxPoint x="100.50000000000011" y="49.99999999999994" as="targetPoint" />
          </mxGeometry>
        </mxCell>
        <mxCell id="GjyVGplFbKFLijOyEsYE-112" value="&amp;lt;Exp&amp;gt;" style="text;html=1;align=center;verticalAlign=middle;whiteSpace=wrap;rounded=0;" vertex="1" parent="1">
          <mxGeometry x="460.25" y="176" width="29.5" height="10" as="geometry" />
        </mxCell>
        <mxCell id="GjyVGplFbKFLijOyEsYE-113" value="" style="endArrow=none;html=1;rounded=0;entryX=0;entryY=1;entryDx=0;entryDy=0;exitX=0.5;exitY=0;exitDx=0;exitDy=0;" edge="1" parent="1" source="GjyVGplFbKFLijOyEsYE-116" target="GjyVGplFbKFLijOyEsYE-112">
          <mxGeometry width="50" height="50" relative="1" as="geometry">
            <mxPoint x="443" y="202" as="sourcePoint" />
            <mxPoint x="532.25" y="172" as="targetPoint" />
          </mxGeometry>
        </mxCell>
        <mxCell id="GjyVGplFbKFLijOyEsYE-114" value="" style="endArrow=none;html=1;rounded=0;entryX=1;entryY=1;entryDx=0;entryDy=0;exitX=0.5;exitY=0;exitDx=0;exitDy=0;" edge="1" parent="1" source="GjyVGplFbKFLijOyEsYE-117" target="GjyVGplFbKFLijOyEsYE-112">
          <mxGeometry width="50" height="50" relative="1" as="geometry">
            <mxPoint x="512" y="202" as="sourcePoint" />
            <mxPoint x="532.25" y="182" as="targetPoint" />
          </mxGeometry>
        </mxCell>
        <mxCell id="GjyVGplFbKFLijOyEsYE-115" value="" style="endArrow=none;html=1;rounded=0;entryX=0.535;entryY=0.977;entryDx=0;entryDy=0;exitX=0.5;exitY=0;exitDx=0;exitDy=0;entryPerimeter=0;" edge="1" parent="1" target="GjyVGplFbKFLijOyEsYE-112" source="GjyVGplFbKFLijOyEsYE-55">
          <mxGeometry width="50" height="50" relative="1" as="geometry">
            <mxPoint x="476.25" y="206" as="sourcePoint" />
            <mxPoint x="532.25" y="162" as="targetPoint" />
          </mxGeometry>
        </mxCell>
        <mxCell id="GjyVGplFbKFLijOyEsYE-116" value="(" style="text;html=1;align=center;verticalAlign=middle;whiteSpace=wrap;rounded=0;" vertex="1" parent="1">
          <mxGeometry x="429.25" y="202" width="20" height="14" as="geometry" />
        </mxCell>
        <mxCell id="GjyVGplFbKFLijOyEsYE-117" value=")" style="text;html=1;align=center;verticalAlign=middle;whiteSpace=wrap;rounded=0;" vertex="1" parent="1">
          <mxGeometry x="504.25" y="202" width="20" height="14" as="geometry" />
        </mxCell>
      </root>
    </mxGraphModel>
  </diagram>
</mxfile>
